<svg width="24" height="24" viewBox="0 0 24 24" fill="none" xmlns="http://www.w3.org/2000/svg">
<path d="M23.994 6.12395C24.0017 5.38699 23.9211 4.65175 23.754 3.93395C23.437 2.62395 22.692 1.62395 21.574 0.890953C21.0037 0.524783 20.3652 0.277825 19.697 0.164953C19.1801 0.0759486 18.6573 0.0258082 18.133 0.0149531C18.093 0.0119531 18.05 0.00495313 18.009 0.00195312H5.986C5.834 0.0119531 5.683 0.0189531 5.531 0.0279531C4.784 0.0709531 4.041 0.150953 3.338 0.427953C2.002 0.957953 1.038 1.87995 0.473 3.20795C0.281 3.65595 0.181 4.13295 0.11 4.61595C0.054 5.00795 0.022 5.40095 0.01 5.79595C0.01 5.82795 0.003 5.85795 0 5.88895V18.112C0.01 18.252 0.017 18.395 0.027 18.536C0.077 19.351 0.181 20.16 0.524 20.909C1.174 22.329 2.262 23.262 3.758 23.71C4.178 23.837 4.614 23.897 5.051 23.938C5.606 23.991 6.161 23.998 6.718 23.998H17.748C18.2729 23.9976 18.7973 23.9642 19.318 23.898C20.14 23.792 20.914 23.548 21.613 23.088C22.4421 22.552 23.0957 21.7847 23.493 20.881C23.679 20.461 23.786 20.011 23.863 19.557C23.976 18.882 24.001 18.199 24 17.517C23.998 13.717 24 9.92195 23.997 6.12395H23.994ZM17.571 10.114V15.826C17.571 16.243 17.513 16.653 17.327 17.032C17.037 17.622 16.567 17.994 15.939 18.172C15.589 18.272 15.233 18.329 14.869 18.345C13.919 18.39 13.096 17.745 12.926 16.809C12.8546 16.4048 12.9174 15.9884 13.1048 15.6233C13.2923 15.2582 13.594 14.9645 13.964 14.787C14.287 14.627 14.634 14.537 14.982 14.463C15.36 14.381 15.74 14.31 16.116 14.223C16.39 14.16 16.573 13.993 16.626 13.707C16.6396 13.6435 16.6463 13.5788 16.646 13.514C16.646 11.699 16.646 9.88395 16.644 8.07095C16.6433 8.00842 16.6346 7.94624 16.618 7.88595C16.578 7.73595 16.468 7.64295 16.314 7.65195C16.154 7.66195 15.996 7.68695 15.839 7.71795C15.079 7.86795 14.319 8.02095 13.559 8.17395L11.234 8.64395L9.86 8.92195C9.844 8.92495 9.828 8.93195 9.812 8.93495C9.535 9.01195 9.435 9.13795 9.422 9.42495C9.42 9.46695 9.422 9.51095 9.422 9.55495C9.42 12.157 9.422 14.759 9.419 17.36C9.419 17.78 9.372 18.196 9.204 18.587C8.926 19.227 8.434 19.627 7.77 19.82C7.42 19.92 7.06 19.98 6.695 19.992C5.735 20.028 4.94 19.392 4.775 18.448C4.635 17.636 5.005 16.763 5.929 16.373C6.286 16.223 6.659 16.141 7.037 16.063C7.324 16.003 7.612 15.947 7.897 15.886C8.28 15.803 8.48 15.563 8.497 15.172V15.022C8.497 12.062 8.497 9.09995 8.499 6.13995C8.499 6.01695 8.512 5.88995 8.541 5.76995C8.611 5.48495 8.814 5.32195 9.087 5.25195C9.342 5.18595 9.602 5.13995 9.861 5.08695C10.594 4.93695 11.327 4.79095 12.061 4.64295L14.331 4.18295C15.001 4.04895 15.671 3.91295 16.341 3.77995C16.561 3.73695 16.783 3.69195 17.004 3.67395C17.314 3.64895 17.527 3.84395 17.558 4.15595C17.566 4.22895 17.57 4.30395 17.57 4.37895C17.572 6.28895 17.572 8.20095 17.57 10.111L17.571 10.114Z" fill="black"/>
</svg>
