<svg width="300" height="249" viewBox="0 0 300 249" fill="none" xmlns="http://www.w3.org/2000/svg">
<path d="M138 209L150 176.5L162 209C162 209 182.007 214.516 191 222.5C199.993 230.484 207.5 248.5 207.5 248.5H240C240 248.5 248.28 202.54 257 174C265.72 145.46 300 72.5 300 72.5L220.5 137C220.5 137 232.258 137.5 234 144C235.742 150.5 223 181 209 181C195 181 175.5 126.83 173 117.5C170.5 108.17 185 108.5 185 108.5L150 0L115 108.5C115 108.5 129.5 108.17 127 117.5C124.5 126.83 105 181 91 181C77 181 64.2583 150.5 66 144C67.7417 137.5 79.5 137 79.5 137L0 72.5C0 72.5 34.2805 145.46 43 174C51.7195 202.54 60 248.5 60 248.5H92.5C92.5 248.5 100.007 230.484 109 222.5C117.993 214.516 138 209 138 209Z" fill="white"/>
</svg>
