<svg width="24" height="24" viewBox="0 0 24 24" fill="none" xmlns="http://www.w3.org/2000/svg">
<path d="M11.9999 0.25C5.51075 0.25 0.25 5.51075 0.25 12.0001C0.25 18.4897 5.51075 23.75 11.9999 23.75C18.4898 23.75 23.75 18.4897 23.75 12.0001C23.75 5.51118 18.4899 0.25 11.9999 0.25ZM17.3884 17.197C17.1779 17.5422 16.7261 17.6516 16.381 17.4397C13.6222 15.7546 10.1493 15.3729 6.05923 16.3074C5.6651 16.3972 5.27223 16.1502 5.18243 15.7559C5.09223 15.3617 5.33818 14.9688 5.7333 14.879C10.2092 13.8564 14.0484 14.2967 17.1456 16.1895C17.4908 16.4014 17.6002 16.8518 17.3884 17.197ZM18.8265 13.9976C18.5613 14.4286 17.9973 14.5647 17.5666 14.2995C14.4082 12.3582 9.59378 11.7959 5.85803 12.9299C5.37355 13.0763 4.86183 12.8032 4.71478 12.3195C4.56888 11.835 4.84205 11.3243 5.3257 11.177C9.59292 9.8822 14.8979 10.5094 18.5249 12.7382C18.9556 13.0034 19.0917 13.5674 18.8265 13.9976ZM18.95 10.666C15.1631 8.41662 8.9151 8.2098 5.29945 9.3072C4.71885 9.48328 4.10485 9.1555 3.92893 8.5749C3.75298 7.994 4.08045 7.38042 4.66148 7.2039C8.81195 5.9439 15.7117 6.18732 20.0716 8.77567C20.595 9.08562 20.7662 9.76012 20.4561 10.2816C20.1474 10.8039 19.4706 10.9761 18.95 10.666Z" fill="#1ED760"/>
</svg>
