<svg width="24" height="18" viewBox="0 0 24 18" fill="none" xmlns="http://www.w3.org/2000/svg">
<path d="M11.9883 0.770508C12.0411 0.770514 19.3343 0.773005 21.1514 1.26855C22.1651 1.54286 22.9571 2.33493 23.2314 3.34863C24.0075 6.47287 23.8278 11.4066 23.2461 14.6514C22.9718 15.6651 22.1797 16.4571 21.166 16.7314C19.3417 17.2287 12.0029 17.2285 12.0029 17.2285C11.9663 17.2285 4.65916 17.2275 2.83984 16.7314C1.82616 16.4571 1.03407 15.6651 0.759766 14.6514C-0.0208188 11.5406 0.193527 6.6035 0.745117 3.36328C1.01942 2.34972 1.81068 1.55757 2.82422 1.2832C4.64784 0.785853 11.9883 0.770508 11.9883 0.770508ZM9.65234 12.5264L15.7412 9L9.65234 5.47363V12.5264Z" fill="#FF0000"/>
</svg>
